<mxfile host="app.diagrams.net" modified="2021-08-25T10:02:49.563Z" agent="5.0 (Windows NT 10.0; Win64; x64) AppleWebKit/537.36 (KHTML, like Gecko) Chrome/92.0.4515.159 Safari/537.36 Edg/92.0.902.78" etag="moFzREN-D-wgtjfCYQOg" version="14.9.9" type="github">
  <diagram id="C5RBs43oDa-KdzZeNtuy" name="Page-1">
    <mxGraphModel dx="1038" dy="547" grid="1" gridSize="10" guides="1" tooltips="1" connect="1" arrows="1" fold="1" page="1" pageScale="1" pageWidth="827" pageHeight="1169" math="0" shadow="0">
      <root>
        <mxCell id="WIyWlLk6GJQsqaUBKTNV-0" />
        <mxCell id="WIyWlLk6GJQsqaUBKTNV-1" parent="WIyWlLk6GJQsqaUBKTNV-0" />
        <mxCell id="YNj7rYlJI7pq2MHlJ6XI-2" value="" style="edgeStyle=orthogonalEdgeStyle;rounded=0;orthogonalLoop=1;jettySize=auto;html=1;" edge="1" parent="WIyWlLk6GJQsqaUBKTNV-1" source="YNj7rYlJI7pq2MHlJ6XI-0" target="YNj7rYlJI7pq2MHlJ6XI-1">
          <mxGeometry relative="1" as="geometry" />
        </mxCell>
        <mxCell id="YNj7rYlJI7pq2MHlJ6XI-0" value="登入" style="ellipse;whiteSpace=wrap;html=1;" vertex="1" parent="WIyWlLk6GJQsqaUBKTNV-1">
          <mxGeometry x="340" y="40" width="120" height="50" as="geometry" />
        </mxCell>
        <mxCell id="YNj7rYlJI7pq2MHlJ6XI-4" value="" style="edgeStyle=orthogonalEdgeStyle;rounded=0;orthogonalLoop=1;jettySize=auto;html=1;" edge="1" parent="WIyWlLk6GJQsqaUBKTNV-1" source="YNj7rYlJI7pq2MHlJ6XI-1" target="YNj7rYlJI7pq2MHlJ6XI-3">
          <mxGeometry relative="1" as="geometry" />
        </mxCell>
        <mxCell id="YNj7rYlJI7pq2MHlJ6XI-1" value="後端生成token傳給前端" style="rounded=1;whiteSpace=wrap;html=1;" vertex="1" parent="WIyWlLk6GJQsqaUBKTNV-1">
          <mxGeometry x="340" y="110" width="120" height="60" as="geometry" />
        </mxCell>
        <mxCell id="YNj7rYlJI7pq2MHlJ6XI-6" value="" style="edgeStyle=orthogonalEdgeStyle;rounded=0;orthogonalLoop=1;jettySize=auto;html=1;" edge="1" parent="WIyWlLk6GJQsqaUBKTNV-1" source="YNj7rYlJI7pq2MHlJ6XI-3" target="YNj7rYlJI7pq2MHlJ6XI-5">
          <mxGeometry relative="1" as="geometry" />
        </mxCell>
        <mxCell id="YNj7rYlJI7pq2MHlJ6XI-3" value="前端將token存儲置cookies或是local storage" style="rounded=1;whiteSpace=wrap;html=1;" vertex="1" parent="WIyWlLk6GJQsqaUBKTNV-1">
          <mxGeometry x="340" y="190" width="120" height="60" as="geometry" />
        </mxCell>
        <mxCell id="YNj7rYlJI7pq2MHlJ6XI-10" value="" style="edgeStyle=orthogonalEdgeStyle;rounded=0;orthogonalLoop=1;jettySize=auto;html=1;" edge="1" parent="WIyWlLk6GJQsqaUBKTNV-1" source="YNj7rYlJI7pq2MHlJ6XI-5" target="YNj7rYlJI7pq2MHlJ6XI-9">
          <mxGeometry relative="1" as="geometry" />
        </mxCell>
        <mxCell id="YNj7rYlJI7pq2MHlJ6XI-5" value="用戶進到需要api的頁面時，token放進HTTP header裡，送去給後端" style="rounded=1;whiteSpace=wrap;html=1;" vertex="1" parent="WIyWlLk6GJQsqaUBKTNV-1">
          <mxGeometry x="340" y="270" width="120" height="60" as="geometry" />
        </mxCell>
        <mxCell id="YNj7rYlJI7pq2MHlJ6XI-12" style="edgeStyle=orthogonalEdgeStyle;rounded=0;orthogonalLoop=1;jettySize=auto;html=1;entryX=0.5;entryY=0;entryDx=0;entryDy=0;" edge="1" parent="WIyWlLk6GJQsqaUBKTNV-1" source="YNj7rYlJI7pq2MHlJ6XI-9" target="YNj7rYlJI7pq2MHlJ6XI-11">
          <mxGeometry relative="1" as="geometry" />
        </mxCell>
        <mxCell id="YNj7rYlJI7pq2MHlJ6XI-14" style="edgeStyle=orthogonalEdgeStyle;rounded=0;orthogonalLoop=1;jettySize=auto;html=1;entryX=0.5;entryY=0;entryDx=0;entryDy=0;" edge="1" parent="WIyWlLk6GJQsqaUBKTNV-1" source="YNj7rYlJI7pq2MHlJ6XI-9" target="YNj7rYlJI7pq2MHlJ6XI-13">
          <mxGeometry relative="1" as="geometry" />
        </mxCell>
        <mxCell id="YNj7rYlJI7pq2MHlJ6XI-9" value="&lt;span&gt;後端收到用戶傳來的token，驗證是否合法&lt;/span&gt;" style="rhombus;whiteSpace=wrap;html=1;" vertex="1" parent="WIyWlLk6GJQsqaUBKTNV-1">
          <mxGeometry x="340" y="350" width="120" height="110" as="geometry" />
        </mxCell>
        <mxCell id="YNj7rYlJI7pq2MHlJ6XI-11" value="404" style="rounded=1;whiteSpace=wrap;html=1;" vertex="1" parent="WIyWlLk6GJQsqaUBKTNV-1">
          <mxGeometry x="200" y="430" width="120" height="60" as="geometry" />
        </mxCell>
        <mxCell id="YNj7rYlJI7pq2MHlJ6XI-13" value="回傳數據給前端" style="rounded=1;whiteSpace=wrap;html=1;" vertex="1" parent="WIyWlLk6GJQsqaUBKTNV-1">
          <mxGeometry x="480" y="430" width="120" height="60" as="geometry" />
        </mxCell>
        <mxCell id="YNj7rYlJI7pq2MHlJ6XI-15" value="不合法" style="text;html=1;align=center;verticalAlign=middle;resizable=0;points=[];autosize=1;strokeColor=none;" vertex="1" parent="WIyWlLk6GJQsqaUBKTNV-1">
          <mxGeometry x="275" y="370" width="50" height="20" as="geometry" />
        </mxCell>
        <mxCell id="YNj7rYlJI7pq2MHlJ6XI-16" value="合法" style="text;html=1;align=center;verticalAlign=middle;resizable=0;points=[];autosize=1;strokeColor=none;" vertex="1" parent="WIyWlLk6GJQsqaUBKTNV-1">
          <mxGeometry x="460" y="370" width="40" height="20" as="geometry" />
        </mxCell>
      </root>
    </mxGraphModel>
  </diagram>
</mxfile>
